<svg xmlns="http://www.w3.org/2000/svg" xmlns:xlink="http://www.w3.org/1999/xlink" width="300" zoomAndPan="magnify" viewBox="0 0 224.87999 225" height="300" preserveAspectRatio="xMidYMid meet" version="1.0"><defs><g/><clipPath id="963f2c78bb"><path d="M 0 0.0585938 L 224.761719 0.0585938 L 224.761719 224.9375 L 0 224.9375 Z M 0 0.0585938 " clip-rule="nonzero"/></clipPath><clipPath id="d813c6f8a9"><path d="M 134.554688 78.375 L 224.761719 78.375 L 224.761719 224.722656 L 134.554688 224.722656 Z M 134.554688 78.375 " clip-rule="nonzero"/></clipPath><clipPath id="032412ffd7"><path d="M 45 0.621094 L 134 0.621094 L 134 25 L 45 25 Z M 45 0.621094 " clip-rule="nonzero"/></clipPath></defs><g clip-path="url(#963f2c78bb)"><path fill="#ffffff" d="M 0 0.0585938 L 224.878906 0.0585938 L 224.878906 232.4375 L 0 232.4375 Z M 0 0.0585938 " fill-opacity="1" fill-rule="nonzero"/><path fill="#ffffff" d="M 0 0.0585938 L 224.878906 0.0585938 L 224.878906 224.941406 L 0 224.941406 Z M 0 0.0585938 " fill-opacity="1" fill-rule="nonzero"/><path fill="#1e293b" d="M 0 0.0585938 L 224.878906 0.0585938 L 224.878906 224.941406 L 0 224.941406 Z M 0 0.0585938 " fill-opacity="1" fill-rule="nonzero"/></g><path fill="#01faff" d="M 52.835938 53.65625 C 57.914062 48.648438 63.605469 44.265625 69.804688 40.648438 C 69.414062 40.0625 69.046875 39.464844 68.679688 38.867188 C 62.351562 42.566406 56.539062 47.050781 51.347656 52.167969 L 52.835938 53.65625 " fill-opacity="1" fill-rule="nonzero"/><path fill="#01faff" d="M 45.972656 57.960938 C 40.589844 64.3125 36.089844 71.429688 32.679688 79.144531 C 33.304688 79.460938 33.933594 79.769531 34.574219 80.0625 C 37.882812 72.5625 42.246094 65.636719 47.464844 59.457031 L 45.972656 57.960938 " fill-opacity="1" fill-rule="nonzero"/><path fill="#01faff" d="M 112.660156 29.078125 C 153.792969 29.078125 188.125 58.210938 196.230469 96.996094 C 196.925781 96.894531 197.621094 96.78125 198.3125 96.664062 C 190.046875 56.871094 154.84375 26.96875 112.660156 26.96875 C 103.144531 26.96875 94.003906 28.53125 85.429688 31.355469 C 85.664062 32.007812 85.898438 32.671875 86.113281 33.335938 C 94.472656 30.589844 103.386719 29.078125 112.660156 29.078125 " fill-opacity="1" fill-rule="nonzero"/><path fill="#01faff" d="M 43.054688 164.648438 C 43.132812 164.582031 43.21875 164.527344 43.296875 164.464844 C 33.222656 150.425781 27.273438 133.21875 27.273438 114.609375 C 27.273438 108.796875 27.855469 103.121094 28.960938 97.632812 C 28.253906 97.582031 27.542969 97.546875 26.835938 97.546875 C 25.753906 103.066406 25.171875 108.769531 25.171875 114.609375 C 25.171875 133.742188 31.304688 151.429688 41.6875 165.835938 C 42.128906 165.425781 42.582031 165.03125 43.054688 164.648438 " fill-opacity="1" fill-rule="nonzero"/><path fill="#01faff" d="M 174.996094 176.023438 C 186.367188 164.445312 194.578125 149.742188 198.144531 133.285156 C 197.457031 133.140625 196.773438 132.96875 196.117188 132.734375 C 192.644531 148.832031 184.625 163.210938 173.507812 174.535156 L 174.996094 176.023438 " fill-opacity="1" fill-rule="nonzero"/><path fill="#01faff" d="M 167.734375 179.933594 C 159.433594 186.964844 149.78125 192.445312 139.210938 195.90625 C 139.445312 196.570312 139.667969 197.234375 139.882812 197.90625 C 150.761719 194.339844 160.695312 188.6875 169.234375 181.433594 C 168.734375 180.933594 168.234375 180.433594 167.734375 179.933594 " fill-opacity="1" fill-rule="nonzero"/><path fill="#01faff" d="M 112.660156 202.25 C 64.335938 202.25 25.164062 163.011719 25.164062 114.609375 C 25.164062 66.207031 64.335938 26.96875 112.660156 26.96875 C 160.980469 26.96875 200.152344 66.207031 200.152344 114.609375 C 200.152344 163.011719 160.980469 202.25 112.660156 202.25 Z M 112.660156 25.5625 C 63.5625 25.5625 23.761719 65.429688 23.761719 114.609375 C 23.761719 163.789062 63.5625 203.660156 112.660156 203.660156 C 161.757812 203.660156 201.554688 163.789062 201.554688 114.609375 C 201.554688 65.429688 161.757812 25.5625 112.660156 25.5625 " fill-opacity="1" fill-rule="nonzero"/><path fill="#01faff" d="M 83.132812 197.039062 C 98.386719 202.527344 115.15625 203.835938 131.566406 200.179688 C 131.40625 199.492188 131.28125 198.800781 131.214844 198.101562 C 115.171875 201.695312 98.777344 200.429688 83.855469 195.066406 L 83.132812 197.039062 " fill-opacity="1" fill-rule="nonzero"/><path fill="#01faff" d="M 76.542969 192.078125 C 66.6875 187.476562 57.671875 180.996094 50.101562 172.832031 C 49.601562 173.320312 49.089844 173.804688 48.574219 174.277344 C 56.367188 182.679688 65.65625 189.347656 75.808594 194.066406 C 76.054688 193.402344 76.296875 192.742188 76.542969 192.078125 " fill-opacity="1" fill-rule="nonzero"/><path fill="#01faff" d="M 197.140625 102.441406 C 198.367188 111.058594 198.25 119.75 196.882812 128.222656 C 197.5625 128.40625 198.242188 128.585938 198.929688 128.738281 C 200.371094 119.921875 200.488281 110.871094 199.1875 101.90625 C 198.507812 102.085938 197.824219 102.265625 197.140625 102.441406 " fill-opacity="1" fill-rule="nonzero"/><path fill="#01faff" d="M 168.933594 59.179688 C 173.554688 63.890625 177.605469 69.164062 180.949219 74.910156 C 181.488281 74.550781 182.042969 74.207031 182.597656 73.867188 C 179.179688 68.003906 175.035156 62.617188 170.308594 57.804688 L 168.933594 59.179688 " fill-opacity="1" fill-rule="nonzero"/><path fill="#01faff" d="M 164.953125 52.820312 C 159.089844 47.835938 152.515625 43.664062 145.390625 40.5 C 145.097656 41.078125 144.808594 41.664062 144.542969 42.253906 C 151.46875 45.324219 157.867188 49.367188 163.578125 54.203125 L 164.953125 52.820312 " fill-opacity="1" fill-rule="nonzero"/><path fill="#01faff" d="M 191.636719 114.636719 C 191.636719 152.757812 164.726562 184.578125 128.894531 192.09375 C 128.992188 192.738281 129.097656 193.382812 129.203125 194.023438 C 165.964844 186.363281 193.585938 153.730469 193.585938 114.636719 C 193.585938 105.8125 192.144531 97.339844 189.535156 89.394531 C 188.925781 89.613281 188.320312 89.824219 187.703125 90.027344 C 190.242188 97.773438 191.636719 106.035156 191.636719 114.636719 " fill-opacity="1" fill-rule="nonzero"/><path fill="#01faff" d="M 66.402344 50.117188 C 66.460938 50.1875 66.511719 50.265625 66.570312 50.34375 C 79.542969 41.003906 95.433594 35.488281 112.621094 35.488281 C 117.996094 35.488281 123.242188 36.03125 128.308594 37.054688 C 128.355469 36.398438 128.386719 35.746094 128.390625 35.085938 C 123.289062 34.078125 118.023438 33.539062 112.621094 33.539062 C 94.953125 33.539062 78.617188 39.226562 65.304688 48.851562 C 65.683594 49.261719 66.046875 49.679688 66.402344 50.117188 " fill-opacity="1" fill-rule="nonzero"/><path fill="#01faff" d="M 55.894531 172.410156 C 66.589844 182.949219 80.171875 190.558594 95.375 193.867188 C 95.503906 193.226562 95.667969 192.597656 95.882812 191.984375 C 81.011719 188.769531 67.730469 181.335938 57.269531 171.035156 L 55.894531 172.410156 " fill-opacity="1" fill-rule="nonzero"/><path fill="#01faff" d="M 52.28125 165.683594 C 45.785156 157.984375 40.726562 149.039062 37.523438 139.242188 C 36.910156 139.457031 36.296875 139.664062 35.679688 139.863281 C 38.972656 149.949219 44.195312 159.160156 50.898438 167.066406 C 51.355469 166.605469 51.816406 166.144531 52.28125 165.683594 " fill-opacity="1" fill-rule="nonzero"/><path fill="#01faff" d="M 36.480469 87.261719 C 31.410156 101.402344 30.199219 116.945312 33.578125 132.15625 C 34.214844 132.007812 34.851562 131.890625 35.5 131.832031 C 32.175781 116.957031 33.347656 101.765625 38.300781 87.933594 L 36.480469 87.261719 " fill-opacity="1" fill-rule="nonzero"/><path fill="#01faff" d="M 41.0625 81.152344 C 45.3125 72.023438 51.304688 63.664062 58.839844 56.652344 C 58.390625 56.183594 57.945312 55.710938 57.503906 55.230469 C 49.746094 62.457031 43.582031 71.0625 39.222656 80.476562 C 39.839844 80.699219 40.449219 80.929688 41.0625 81.152344 " fill-opacity="1" fill-rule="nonzero"/><path fill="#01faff" d="M 123.867188 192.9375 C 115.910156 194.070312 107.882812 193.964844 100.050781 192.695312 C 99.882812 193.324219 99.714844 193.957031 99.574219 194.589844 C 107.71875 195.933594 116.078125 196.035156 124.359375 194.835938 C 124.195312 194.203125 124.03125 193.570312 123.867188 192.9375 " fill-opacity="1" fill-rule="nonzero"/><path fill="#01faff" d="M 210.449219 63.492188 C 209.3125 61.285156 208.039062 59.015625 206.671875 56.742188 L 205.746094 55.199219 L 204.210938 56.136719 L 201.425781 57.792969 L 202.359375 59.34375 C 203.777344 61.683594 204.960938 63.792969 205.992188 65.796875 C 213.824219 81.003906 217.800781 97.414062 217.800781 114.566406 C 217.800781 127.753906 215.394531 140.671875 210.65625 152.953125 C 209.0625 157.078125 207.242188 161.058594 205.25 164.789062 C 199.316406 175.890625 191.515625 185.789062 182.070312 194.203125 C 181.835938 194.414062 181.589844 194.621094 181.34375 194.824219 C 181.121094 195.003906 180.898438 195.1875 180.679688 195.375 L 179.394531 196.480469 L 180.429688 197.828125 C 180.636719 198.097656 182.488281 200.429688 182.488281 200.429688 L 183.902344 199.21875 L 184.496094 198.722656 C 184.800781 198.46875 185.105469 198.21875 185.40625 197.957031 C 195.285156 189.148438 203.453125 178.789062 209.671875 167.15625 C 211.773438 163.21875 213.675781 159.050781 215.328125 154.765625 C 220.296875 141.898438 222.8125 128.375 222.8125 114.566406 C 222.8125 96.605469 218.652344 79.421875 210.449219 63.492188 " fill-opacity="1" fill-rule="nonzero"/><path fill="#01faff" d="M 106.171875 6.335938 L 105.933594 3.121094 L 104.160156 3.234375 C 45.753906 7.011719 0 55.914062 0 114.566406 L 0.0234375 115.5 C 0.0390625 117.210938 0.101562 119.050781 0.226562 121.128906 L 0.339844 123.03125 L 2.226562 122.804688 L 5.332031 122.390625 L 5.234375 120.726562 C 5.15625 119.398438 5.105469 118.269531 5.070312 117.246094 L 5.082031 117.246094 L 5.035156 115.4375 L 5.015625 113.667969 C 5.484375 58.050781 49.015625 11.832031 104.5 8.25 L 106.296875 8.132812 L 106.171875 6.335938 " fill-opacity="1" fill-rule="nonzero"/><path fill="#01faff" d="M 96.496094 212.703125 C 55.09375 205.988281 22.277344 173.632812 14.832031 132.402344 C 14.3125 132.5 13.785156 132.582031 13.265625 132.664062 C 20.824219 174.585938 54.195312 207.488281 96.308594 214.289062 C 96.371094 213.761719 96.4375 213.234375 96.496094 212.703125 " fill-opacity="1" fill-rule="nonzero"/><path fill="#01faff" d="M 164.675781 199.136719 C 156.894531 203.964844 148.394531 207.753906 139.375 210.292969 C 139.507812 210.808594 139.636719 211.324219 139.769531 211.84375 C 148.933594 209.265625 157.5625 205.421875 165.472656 200.519531 C 165.210938 200.054688 164.945312 199.59375 164.675781 199.136719 " fill-opacity="1" fill-rule="nonzero"/><path fill="#01faff" d="M 115.851562 15.277344 C 146.804688 16.316406 174.171875 31.523438 191.660156 54.664062 C 192.105469 54.375 192.554688 54.085938 193.007812 53.804688 C 175.21875 30.195312 147.328125 14.695312 115.769531 13.675781 C 115.804688 14.207031 115.824219 14.742188 115.851562 15.277344 " fill-opacity="1" fill-rule="nonzero"/><path fill="#01faff" d="M 25.515625 75.394531 C 26.738281 72.730469 28.074219 70.132812 29.519531 67.609375 C 27.992188 67.125 26.449219 66.640625 24.871094 66.175781 L 24.832031 66.164062 C 23.304688 68.839844 21.898438 71.585938 20.613281 74.398438 L 21.605469 74.589844 C 22.90625 74.84375 24.214844 75.121094 25.515625 75.394531 " fill-opacity="1" fill-rule="nonzero"/><path fill="#01faff" d="M 58.378906 30.671875 C 55.679688 32.417969 53.070312 34.28125 50.558594 36.265625 L 51.015625 36.640625 C 52.085938 37.511719 53.128906 38.390625 54.167969 39.265625 C 56.546875 37.417969 59.015625 35.675781 61.570312 34.050781 C 60.519531 32.929688 59.464844 31.800781 58.378906 30.671875 " fill-opacity="1" fill-rule="nonzero"/><path fill="#01faff" d="M 48.6875 37.78125 C 46.070312 39.945312 43.566406 42.242188 41.179688 44.65625 L 41.71875 44.984375 C 42.886719 45.699219 44.042969 46.433594 45.203125 47.164062 C 47.464844 44.90625 49.832031 42.75 52.3125 40.722656 C 51.113281 39.734375 49.90625 38.746094 48.6875 37.78125 " fill-opacity="1" fill-rule="nonzero"/><path fill="#01faff" d="M 26.796875 64.472656 C 28.117188 64.875 29.402344 65.28125 30.671875 65.691406 C 32.28125 63.03125 34.011719 60.457031 35.859375 57.96875 C 34.425781 57.320312 32.953125 56.667969 31.441406 56.019531 C 29.492188 58.660156 27.660156 61.398438 25.96875 64.222656 L 26.796875 64.472656 " fill-opacity="1" fill-rule="nonzero"/><path fill="#01faff" d="M 39.507812 46.347656 C 37.148438 48.839844 34.921875 51.453125 32.824219 54.171875 L 33.496094 54.46875 C 34.769531 55.03125 36.007812 55.589844 37.222656 56.148438 C 39.214844 53.597656 41.339844 51.164062 43.578125 48.820312 C 42.234375 47.992188 40.882812 47.164062 39.507812 46.347656 " fill-opacity="1" fill-rule="nonzero"/><path fill="#01faff" d="M 206.859375 103.011719 C 207.847656 102.726562 208.867188 102.429688 209.9375 102.113281 C 209.710938 100.320312 209.429688 98.511719 209.105469 96.730469 C 208.097656 97.140625 207.105469 97.53125 206.105469 97.929688 C 206.398438 99.613281 206.65625 101.304688 206.859375 103.011719 " fill-opacity="1" fill-rule="nonzero"/><path fill="#01faff" d="M 207.496094 112.992188 C 208.519531 112.800781 209.566406 112.605469 210.675781 112.390625 C 210.648438 110.765625 210.59375 109.25 210.5 107.785156 C 209.414062 108.101562 208.378906 108.398438 207.363281 108.6875 C 207.449219 110.113281 207.472656 111.550781 207.496094 112.992188 " fill-opacity="1" fill-rule="nonzero"/><path fill="#01faff" d="M 207.941406 91.136719 C 207.4375 89.089844 206.867188 87.042969 206.238281 85.03125 C 205.285156 85.550781 204.347656 86.046875 203.402344 86.554688 C 203.988281 88.464844 204.496094 90.394531 204.957031 92.335938 C 205.949219 91.9375 206.9375 91.546875 207.941406 91.136719 " fill-opacity="1" fill-rule="nonzero"/><path fill="#01faff" d="M 72.082031 24 C 72.8125 25.046875 73.554688 26.128906 74.300781 27.230469 C 77.328125 25.894531 80.429688 24.695312 83.609375 23.671875 C 82.957031 22.355469 82.296875 21.035156 81.605469 19.703125 L 81.53125 19.558594 C 78.160156 20.675781 74.878906 21.964844 71.675781 23.414062 L 72.082031 24 " fill-opacity="1" fill-rule="nonzero"/><path fill="#01faff" d="M 207.097656 123.777344 C 208.109375 123.695312 209.152344 123.609375 210.257812 123.511719 C 210.425781 121.742188 210.546875 119.933594 210.625 118.113281 C 209.519531 118.324219 208.464844 118.519531 207.449219 118.699219 C 207.375 120.398438 207.257812 122.089844 207.097656 123.777344 " fill-opacity="1" fill-rule="nonzero"/><path fill="#01faff" d="M 198.460938 155.390625 C 199.339844 155.628906 200.246094 155.878906 201.203125 156.128906 C 201.945312 154.578125 202.648438 152.980469 203.3125 151.375 C 202.304688 151.222656 201.332031 151.070312 200.386719 150.917969 C 199.777344 152.429688 199.140625 153.925781 198.460938 155.390625 " fill-opacity="1" fill-rule="nonzero"/><path fill="#01faff" d="M 202.460938 145.441406 C 203.394531 145.578125 204.367188 145.71875 205.386719 145.863281 C 205.582031 145.335938 205.765625 144.804688 205.941406 144.269531 C 206.324219 143.078125 206.707031 141.816406 207.085938 140.441406 C 206.015625 140.410156 205.003906 140.375 204.03125 140.335938 C 203.554688 142.046875 203.035156 143.75 202.460938 145.441406 " fill-opacity="1" fill-rule="nonzero"/><path fill="#01faff" d="M 205.402344 134.695312 C 206.386719 134.730469 207.414062 134.753906 208.480469 134.777344 C 208.871094 132.960938 209.21875 131.105469 209.511719 129.234375 C 208.417969 129.328125 207.375 129.40625 206.367188 129.476562 C 206.089844 131.226562 205.769531 132.964844 205.402344 134.695312 " fill-opacity="1" fill-rule="nonzero"/><path fill="#01faff" d="M 192.933594 165.5625 C 193.730469 165.902344 194.546875 166.246094 195.390625 166.597656 C 195.566406 166.324219 195.742188 166.050781 195.910156 165.773438 C 196.804688 164.347656 197.664062 162.878906 198.480469 161.398438 C 197.5625 161.144531 196.679688 160.894531 195.816406 160.644531 C 194.90625 162.316406 193.941406 163.949219 192.933594 165.5625 " fill-opacity="1" fill-rule="nonzero"/><path fill="#01faff" d="M 185.96875 175.3125 C 186.660156 175.730469 187.359375 176.152344 188.089844 176.585938 C 189.453125 174.960938 190.785156 173.257812 192.050781 171.523438 C 191.234375 171.171875 190.441406 170.828125 189.667969 170.484375 C 188.488281 172.136719 187.246094 173.738281 185.96875 175.3125 " fill-opacity="1" fill-rule="nonzero"/><path fill="#01faff" d="M 60.425781 29.378906 L 60.855469 29.835938 C 61.761719 30.808594 62.660156 31.800781 63.5625 32.789062 C 66.332031 31.117188 69.203125 29.59375 72.152344 28.207031 C 71.265625 26.921875 70.378906 25.648438 69.492188 24.414062 C 66.375 25.914062 63.355469 27.582031 60.425781 29.378906 " fill-opacity="1" fill-rule="nonzero"/><path fill="#01faff" d="M 21.464844 85.878906 C 22.398438 82.980469 23.464844 80.148438 24.65625 77.378906 C 23.078125 77.054688 21.496094 76.738281 19.941406 76.445312 L 19.734375 76.410156 C 18.472656 79.34375 17.347656 82.34375 16.355469 85.40625 L 17.488281 85.503906 C 18.792969 85.613281 20.117188 85.742188 21.464844 85.878906 " fill-opacity="1" fill-rule="nonzero"/><path fill="#01faff" d="M 20.796875 87.925781 C 19.238281 87.777344 17.679688 87.628906 16.148438 87.503906 L 15.699219 87.46875 C 14.828125 90.390625 14.070312 93.359375 13.460938 96.378906 L 14.808594 96.363281 C 16.082031 96.339844 17.390625 96.332031 18.714844 96.332031 C 19.289062 93.484375 19.980469 90.679688 20.796875 87.925781 " fill-opacity="1" fill-rule="nonzero"/><path fill="#01faff" d="M 209.539062 56.96875 C 204.765625 48.78125 198.984375 41.253906 192.386719 34.539062 L 190.464844 36.464844 C 196.917969 43.039062 202.578125 50.402344 207.242188 58.425781 C 207.996094 57.921875 208.765625 57.445312 209.539062 56.96875 " fill-opacity="1" fill-rule="nonzero"/><g clip-path="url(#d813c6f8a9)"><path fill="#01faff" d="M 219.230469 78.648438 C 218.382812 78.949219 217.53125 79.246094 216.671875 79.527344 C 220.210938 90.34375 222.164062 101.882812 222.164062 113.886719 C 222.164062 167.113281 184.585938 211.539062 134.5625 222.03125 C 134.699219 222.925781 134.847656 223.828125 134.992188 224.722656 C 186.316406 214.027344 224.878906 168.46875 224.878906 113.886719 C 224.878906 101.566406 222.867188 89.738281 219.230469 78.648438 " fill-opacity="1" fill-rule="nonzero"/></g><g clip-path="url(#032412ffd7)"><path fill="#01faff" d="M 45.777344 22.042969 C 46.308594 22.613281 46.820312 23.199219 47.3125 23.808594 C 47.394531 23.910156 47.464844 24.019531 47.546875 24.121094 C 65.652344 11.085938 87.847656 3.382812 111.847656 3.382812 C 119.34375 3.382812 126.664062 4.140625 133.742188 5.566406 C 133.8125 4.65625 133.851562 3.742188 133.855469 2.824219 C 126.734375 1.417969 119.378906 0.660156 111.847656 0.660156 C 87.171875 0.660156 64.363281 8.605469 45.777344 22.042969 " fill-opacity="1" fill-rule="nonzero"/></g><path fill="#01faff" d="M 9.367188 66.195312 C 10.226562 66.507812 11.074219 66.824219 11.929688 67.136719 C 17.871094 54.390625 26.230469 42.726562 36.757812 32.929688 C 36.125 32.28125 35.503906 31.621094 34.890625 30.949219 C 24.054688 41.039062 15.457031 53.054688 9.367188 66.195312 " fill-opacity="1" fill-rule="nonzero"/><path fill="#01faff" d="M 40.398438 202.222656 C 47.566406 208.15625 55.492188 213.195312 63.988281 217.21875 C 64.324219 216.386719 64.664062 215.554688 65.015625 214.726562 C 56.867188 210.851562 49.257812 206.023438 42.363281 200.347656 C 41.714844 200.976562 41.054688 201.597656 40.398438 202.222656 " fill-opacity="1" fill-rule="nonzero"/><path fill="#01faff" d="M 4.460938 150.582031 C 6.332031 156.3125 8.707031 161.808594 11.453125 167.078125 C 12.15625 166.484375 12.851562 165.878906 13.554688 165.277344 C 11 160.296875 8.78125 155.117188 7.019531 149.722656 C 6.167969 150.019531 5.316406 150.308594 4.460938 150.582031 " fill-opacity="1" fill-rule="nonzero"/><path fill="#01faff" d="M 20.925781 182.242188 C 22.503906 184.273438 24.128906 186.273438 25.84375 188.1875 C 26.46875 187.53125 27.089844 186.875 27.714844 186.214844 C 26.027344 184.320312 24.425781 182.347656 22.871094 180.335938 C 22.230469 180.980469 21.578125 181.613281 20.925781 182.242188 " fill-opacity="1" fill-rule="nonzero"/><g fill="#cbd5e1" fill-opacity="1"><g transform="translate(49.88708, 102.216519)"><g><path d="M 33.59375 -40.585938 L 5.269531 -40.585938 C 4.875 -40.585938 3.941406 -40.390625 3.941406 -38.816406 L 3.941406 -35.023438 C 3.941406 -33.496094 4.875 -33.296875 5.269531 -33.296875 L 33.59375 -33.296875 C 33.988281 -33.296875 34.972656 -33.445312 34.972656 -34.972656 L 34.972656 -38.863281 C 34.972656 -40.441406 33.988281 -40.585938 33.59375 -40.585938 Z M 33.347656 -24.085938 L 7.929688 -24.039062 C 6.5 -23.9375 5.269531 -23.152344 4.53125 -21.96875 C 4.335938 -21.574219 4.136719 -21.132812 4.039062 -20.6875 L 3.941406 -1.675781 C 3.941406 -0.148438 4.925781 0.0507812 5.320312 0.0507812 L 9.851562 0.0507812 C 10.246094 0.0507812 11.230469 -0.148438 11.230469 -1.675781 C 11.230469 -1.675781 11.28125 -16.796875 11.328125 -16.796875 L 33.347656 -16.796875 C 33.742188 -16.796875 34.726562 -16.945312 34.726562 -18.472656 L 34.726562 -22.363281 C 34.726562 -23.890625 33.742188 -24.085938 33.347656 -24.085938 Z M 33.347656 -24.085938 "/></g></g></g><g fill="#cbd5e1" fill-opacity="1"><g transform="translate(91.257369, 102.216519)"><g><path d="M 34.035156 -40.585938 L 16.105469 -40.585938 C 13.941406 -40.585938 12.066406 -40.292969 10.539062 -39.75 C 8.964844 -39.160156 7.683594 -38.222656 6.75 -36.992188 C 5.761719 -35.761719 5.023438 -34.136719 4.582031 -32.164062 C 4.136719 -30.242188 3.941406 -27.878906 3.941406 -25.171875 L 3.941406 -15.417969 C 3.941406 -12.660156 4.136719 -10.292969 4.582031 -8.324219 C 5.023438 -6.402344 5.761719 -4.777344 6.75 -3.496094 C 7.734375 -2.265625 9.015625 -1.328125 10.539062 -0.789062 C 12.066406 -0.246094 13.941406 0.0507812 16.105469 0.0507812 L 34.035156 0.0507812 C 34.429688 0.0507812 35.414062 -0.148438 35.414062 -1.675781 L 35.414062 -5.566406 C 35.414062 -7.09375 34.429688 -7.289062 34.035156 -7.289062 L 16.351562 -7.289062 C 15.320312 -7.289062 14.433594 -7.386719 13.792969 -7.636719 C 13.152344 -7.832031 12.707031 -8.175781 12.3125 -8.71875 C 11.921875 -9.210938 11.675781 -9.949219 11.476562 -10.886719 C 11.328125 -11.871094 11.230469 -13.101562 11.230469 -14.578125 L 11.230469 -26.058594 C 11.230469 -27.535156 11.328125 -28.765625 11.476562 -29.703125 C 11.675781 -30.636719 11.921875 -31.328125 12.3125 -31.871094 C 12.707031 -32.410156 13.152344 -32.757812 13.792969 -32.953125 C 14.433594 -33.199219 15.320312 -33.296875 16.351562 -33.296875 L 34.035156 -33.296875 C 34.429688 -33.296875 35.414062 -33.496094 35.414062 -35.070312 L 35.414062 -38.863281 C 35.414062 -40.390625 34.429688 -40.585938 34.035156 -40.585938 Z M 34.035156 -40.585938 "/></g></g></g><g fill="#cbd5e1" fill-opacity="1"><g transform="translate(133.070918, 102.216519)"><g><path d="M 27.730469 -24.234375 L 12.953125 -24.234375 C 12.214844 -24.234375 11.28125 -24.53125 11.28125 -26.945312 L 11.28125 -30.589844 C 11.28125 -31.476562 11.425781 -32.164062 11.675781 -32.65625 C 11.871094 -32.953125 12.167969 -33.296875 13.003906 -33.296875 L 33.050781 -33.296875 C 33.445312 -33.296875 34.429688 -33.445312 34.429688 -34.972656 L 34.429688 -38.914062 C 34.429688 -40.441406 33.445312 -40.585938 33.050781 -40.585938 L 11.820312 -40.585938 C 9.113281 -40.585938 7.140625 -39.699219 5.863281 -37.878906 C 4.582031 -36.105469 3.941406 -33.742188 3.941406 -30.882812 L 3.941406 -27.140625 C 3.941406 -23.742188 4.628906 -20.984375 5.863281 -19.257812 C 7.386719 -17.238281 9.65625 -16.945312 11.722656 -16.945312 L 26.5 -16.945312 C 27.238281 -16.945312 28.222656 -16.648438 28.222656 -14.234375 L 28.222656 -10 C 28.222656 -9.113281 28.078125 -8.421875 27.78125 -7.929688 C 27.582031 -7.636719 27.289062 -7.289062 26.449219 -7.289062 L 5.417969 -7.289062 C 4.976562 -7.289062 3.988281 -7.140625 3.988281 -5.617188 L 3.988281 -1.675781 C 3.988281 -0.148438 4.976562 0 5.417969 0 L 27.632812 0 C 30.34375 0 32.363281 -0.9375 33.640625 -2.757812 C 34.875 -4.53125 35.515625 -6.847656 35.515625 -9.703125 L 35.515625 -14.039062 C 35.515625 -17.238281 34.875 -19.753906 33.59375 -21.523438 C 32.261719 -23.296875 30.292969 -24.234375 27.730469 -24.234375 Z M 27.730469 -24.234375 "/></g></g></g><g fill="#cbd5e1" fill-opacity="1"><g transform="translate(63.580367, 162.651865)"><g><path d="M 21.074219 -32.964844 L 10.855469 -29.445312 L 8.488281 -29.445312 L 0.171875 -26.617188 C -0.460938 -26.382812 -0.980469 -26.152344 -1.328125 -25.863281 L 0.578125 -25.863281 C 0.347656 -25.691406 0.171875 -25.519531 0 -25.289062 C -0.402344 -24.769531 -0.636719 -24.074219 -0.636719 -23.265625 L -0.636719 -20.324219 C -0.636719 -20.207031 -0.578125 -20.089844 -0.578125 -19.976562 L -7.5625 -19.976562 C -7.503906 -19.570312 -7.449219 -19.167969 -7.273438 -18.820312 L -1.039062 -18.820312 C -0.921875 -18.589844 -0.867188 -18.417969 -0.75 -18.300781 C -0.347656 -17.78125 0.402344 -17.378906 1.386719 -17.03125 L 20.667969 -10.507812 C 20.726562 -10.566406 20.84375 -10.566406 20.898438 -10.625 C 21.128906 -10.796875 21.476562 -11.144531 21.476562 -11.835938 L 21.476562 -14.78125 C 21.476562 -15.875 20.84375 -16.222656 20.4375 -16.339844 L 12.988281 -18.820312 L 11.429688 -18.820312 L 7.792969 -19.976562 L 9.351562 -19.976562 L 4.445312 -21.648438 L 4.445312 -21.9375 L 15.933594 -25.863281 L 13.164062 -25.863281 L 17.667969 -27.367188 C 18.070312 -27.480469 18.761719 -27.828125 18.761719 -28.925781 L 18.761719 -29.445312 L 21.476562 -29.445312 L 21.476562 -31.871094 C 21.476562 -32.445312 21.304688 -32.734375 21.074219 -32.964844 Z M 21.074219 -32.964844 "/></g></g></g><g fill="#cbd5e1" fill-opacity="1"><g transform="translate(99.777651, 162.651865)"><g><path d="M 4.15625 -0.808594 L 6.523438 -6.8125 L 5.945312 -6.8125 L 7.390625 -10.390625 L 7.910156 -10.390625 L 8.949219 -12.875 L 6.8125 -12.875 L 8.199219 -16.511719 L 10.335938 -16.511719 L 13.972656 -25.691406 L 11.71875 -25.691406 L 12.183594 -26.902344 L 14.492188 -26.902344 L 16.800781 -32.734375 L 14.492188 -32.734375 L 15.875 -36.371094 L 18.1875 -36.371094 L 20.378906 -41.855469 L 17.957031 -41.855469 L 18.417969 -43.070312 L 20.84375 -43.070312 L 22.285156 -46.648438 L 19.050781 -46.648438 L 19.457031 -47.804688 C 19.859375 -48.667969 19.167969 -49.652344 18.242188 -49.652344 L 17.839844 -49.652344 C 17.320312 -49.652344 16.800781 -49.304688 16.570312 -48.785156 L 15.761719 -46.648438 L 17.839844 -46.648438 L 16.398438 -43.070312 L 14.316406 -43.070312 L 13.855469 -41.855469 L 15.183594 -41.855469 L 12.988281 -36.371094 L 11.664062 -36.371094 L 10.21875 -32.734375 L 12.703125 -32.734375 L 10.390625 -26.902344 L 7.910156 -26.902344 L 7.449219 -25.691406 L 9.582031 -25.691406 L 5.945312 -16.511719 L 3.808594 -16.511719 L 2.367188 -12.875 L 5.136719 -12.875 L 4.15625 -10.390625 L 1.386719 -10.390625 L 0 -6.8125 L 0.867188 -6.8125 L -1.097656 -1.789062 C -1.441406 -0.921875 -0.808594 0.0585938 0.117188 0.0585938 L 2.886719 0.0585938 C 3.40625 0.0585938 3.925781 -0.289062 4.15625 -0.808594 Z M 4.15625 -0.808594 "/></g></g></g><g fill="#cbd5e1" fill-opacity="1"><g transform="translate(136.898632, 162.651865)"><g><path d="M -0.230469 -10.738281 L 9.988281 -14.261719 L 12.296875 -14.261719 L 20.609375 -17.148438 C 21.246094 -17.320312 21.765625 -17.609375 22.171875 -17.839844 L 20.207031 -17.839844 C 20.4375 -18.011719 20.667969 -18.242188 20.785156 -18.417969 C 21.1875 -18.9375 21.417969 -19.628906 21.417969 -20.4375 L 21.417969 -23.382812 C 21.417969 -23.496094 21.417969 -23.613281 21.363281 -23.730469 L 23.324219 -23.730469 C 23.324219 -24.191406 23.210938 -24.59375 23.035156 -24.941406 L 21.824219 -24.941406 C 21.765625 -25.113281 21.648438 -25.289062 21.535156 -25.460938 C 21.128906 -25.980469 20.4375 -26.382812 19.398438 -26.730469 L 0.117188 -33.195312 C 0.0585938 -33.195312 0 -33.140625 -0.0585938 -33.082031 C -0.347656 -32.910156 -0.691406 -32.5625 -0.691406 -31.871094 L -0.691406 -28.984375 C -0.691406 -27.828125 0 -27.480469 0.402344 -27.367188 L 7.792969 -24.941406 L 9.351562 -24.941406 L 12.988281 -23.730469 L 11.429688 -23.730469 L 16.339844 -22.113281 L 16.398438 -21.765625 L 4.851562 -17.839844 L 7.621094 -17.839844 L 3.117188 -16.339844 C 2.714844 -16.222656 2.078125 -15.875 2.078125 -14.78125 L 2.078125 -14.261719 L -0.691406 -14.261719 L -0.691406 -11.835938 C -0.691406 -11.316406 -0.460938 -10.96875 -0.230469 -10.738281 Z M -0.230469 -10.738281 "/></g></g></g></svg>